<svg width="25" height="24" viewBox="0 0 25 24" fill="none" xmlns="http://www.w3.org/2000/svg">
<g id="add">
<mask id="mask0_707_46" style="mask-type:alpha" maskUnits="userSpaceOnUse" x="0" y="0" width="25" height="24">
<rect id="Bounding box" x="0.5" width="24" height="24" fill="#D9D9D9"/>
</mask>
<g mask="url(#mask0_707_46)">
<path id="add_2" d="M12.5 19C12.2167 19 11.9793 18.904 11.788 18.712C11.596 18.5207 11.5 18.2833 11.5 18V13H6.5C6.21667 13 5.979 12.904 5.787 12.712C5.59567 12.5207 5.5 12.2833 5.5 12C5.5 11.7167 5.59567 11.479 5.787 11.287C5.979 11.0957 6.21667 11 6.5 11H11.5V6C11.5 5.71667 11.596 5.479 11.788 5.287C11.9793 5.09567 12.2167 5 12.5 5C12.7833 5 13.021 5.09567 13.213 5.287C13.4043 5.479 13.5 5.71667 13.5 6V11H18.5C18.7833 11 19.0207 11.0957 19.212 11.287C19.404 11.479 19.5 11.7167 19.5 12C19.5 12.2833 19.404 12.5207 19.212 12.712C19.0207 12.904 18.7833 13 18.5 13H13.5V18C13.5 18.2833 13.4043 18.5207 13.213 18.712C13.021 18.904 12.7833 19 12.5 19Z" fill="#10A4B0"/>
</g>
</g>
</svg>
