<svg width="24" height="24" viewBox="0 0 24 24" fill="none" xmlns="http://www.w3.org/2000/svg">
<g id="Close">
<path id="Vector" d="M15.71 8.28999C15.617 8.19626 15.5064 8.12187 15.3846 8.0711C15.2627 8.02033 15.132 7.99419 15 7.99419C14.868 7.99419 14.7373 8.02033 14.6154 8.0711C14.4936 8.12187 14.383 8.19626 14.29 8.28999L12 10.59L9.71 8.28999C9.5217 8.10168 9.2663 7.9959 9 7.9959C8.7337 7.9959 8.4783 8.10168 8.29 8.28999C8.1017 8.47829 7.99591 8.73369 7.99591 8.99999C7.99591 9.26629 8.1017 9.52168 8.29 9.70999L10.59 12L8.29 14.29C8.19627 14.383 8.12188 14.4936 8.07111 14.6154C8.02034 14.7373 7.9942 14.868 7.9942 15C7.9942 15.132 8.02034 15.2627 8.07111 15.3846C8.12188 15.5064 8.19627 15.617 8.29 15.71C8.38296 15.8037 8.49356 15.8781 8.61542 15.9289C8.73728 15.9796 8.86799 16.0058 9 16.0058C9.13201 16.0058 9.26272 15.9796 9.38458 15.9289C9.50643 15.8781 9.61704 15.8037 9.71 15.71L12 13.41L14.29 15.71C14.383 15.8037 14.4936 15.8781 14.6154 15.9289C14.7373 15.9796 14.868 16.0058 15 16.0058C15.132 16.0058 15.2627 15.9796 15.3846 15.9289C15.5064 15.8781 15.617 15.8037 15.71 15.71C15.8037 15.617 15.8781 15.5064 15.9289 15.3846C15.9797 15.2627 16.0058 15.132 16.0058 15C16.0058 14.868 15.9797 14.7373 15.9289 14.6154C15.8781 14.4936 15.8037 14.383 15.71 14.29L13.41 12L15.71 9.70999C15.8037 9.61702 15.8781 9.50642 15.9289 9.38456C15.9797 9.26271 16.0058 9.132 16.0058 8.99999C16.0058 8.86798 15.9797 8.73727 15.9289 8.61541C15.8781 8.49355 15.8037 8.38295 15.71 8.28999ZM19.07 4.92999C18.1475 3.97489 17.0441 3.21306 15.824 2.68897C14.604 2.16488 13.2918 1.88902 11.964 1.87748C10.6362 1.86595 9.31942 2.11896 8.09046 2.62177C6.8615 3.12458 5.74498 3.86711 4.80605 4.80604C3.86712 5.74497 3.12459 6.86148 2.62178 8.09045C2.11897 9.31941 1.86596 10.6362 1.87749 11.964C1.88903 13.2918 2.1649 14.604 2.68899 15.824C3.21308 17.0441 3.9749 18.1475 4.93 19.07C5.85247 20.0251 6.95591 20.7869 8.17595 21.311C9.39599 21.8351 10.7082 22.111 12.036 22.1225C13.3638 22.134 14.6806 21.881 15.9095 21.3782C17.1385 20.8754 18.255 20.1329 19.194 19.1939C20.1329 18.255 20.8754 17.1385 21.3782 15.9095C21.881 14.6806 22.134 13.3638 22.1225 12.036C22.111 10.7082 21.8351 9.39598 21.311 8.17594C20.7869 6.9559 20.0251 5.85246 19.07 4.92999ZM17.66 17.66C16.352 18.9694 14.6305 19.7848 12.7888 19.9673C10.947 20.1498 9.099 19.688 7.55952 18.6608C6.02004 17.6335 4.88436 16.1042 4.34597 14.3335C3.80759 12.5627 3.8998 10.6601 4.60691 8.94977C5.31402 7.23941 6.59227 5.82714 8.22389 4.95355C9.85551 4.07996 11.7395 3.79912 13.555 4.15886C15.3705 4.5186 17.005 5.49668 18.1802 6.92645C19.3554 8.35622 19.9985 10.1492 20 12C20.0036 13.0513 19.7986 14.0928 19.3969 15.0644C18.9953 16.0359 18.4049 16.9181 17.66 17.66Z" fill="#6C7074"/>
</g>
</svg>
