<svg width="24" height="24" viewBox="0 0 24 24" fill="none" xmlns="http://www.w3.org/2000/svg">
<g id="close_fullscreen">
<mask id="mask0_707_18" style="mask-type:alpha" maskUnits="userSpaceOnUse" x="0" y="0" width="24" height="24">
<rect id="Bounding box" width="24" height="24" fill="#D9D9D9"/>
</mask>
<g mask="url(#mask0_707_18)">
<path id="close_fullscreen_2" d="M13 12C12.7167 12 12.4793 11.904 12.288 11.712C12.096 11.5207 12 11.2833 12 11V4.99999C12 4.71665 12.096 4.47899 12.288 4.28699C12.4793 4.09565 12.7167 3.99999 13 3.99999C13.2833 3.99999 13.521 4.09565 13.713 4.28699C13.9043 4.47899 14 4.71665 14 4.99999V8.59999L19.9 2.69999C20.0833 2.51665 20.3167 2.42499 20.6 2.42499C20.8833 2.42499 21.1167 2.51665 21.3 2.69999C21.4833 2.88332 21.575 3.11665 21.575 3.39999C21.575 3.68332 21.4833 3.91665 21.3 4.09999L15.4 9.99999H19C19.2833 9.99999 19.5207 10.0957 19.712 10.287C19.904 10.479 20 10.7167 20 11C20 11.2833 19.904 11.5207 19.712 11.712C19.5207 11.904 19.2833 12 19 12H13ZM2.7 21.3C2.51667 21.1167 2.425 20.8833 2.425 20.6C2.425 20.3167 2.51667 20.0833 2.7 19.9L8.6 14H5C4.71667 14 4.479 13.904 4.287 13.712C4.09567 13.5207 4 13.2833 4 13C4 12.7167 4.09567 12.479 4.287 12.287C4.479 12.0957 4.71667 12 5 12H11C11.2833 12 11.521 12.0957 11.713 12.287C11.9043 12.479 12 12.7167 12 13V19C12 19.2833 11.9043 19.5207 11.713 19.712C11.521 19.904 11.2833 20 11 20C10.7167 20 10.4793 19.904 10.288 19.712C10.096 19.5207 10 19.2833 10 19V15.4L4.1 21.3C3.91667 21.4833 3.68333 21.575 3.4 21.575C3.11667 21.575 2.88333 21.4833 2.7 21.3Z" fill="#6C7074"/>
</g>
</g>
</svg>
